<svg id="Layer_1" data-name="Layer 1" xmlns="http://www.w3.org/2000/svg" viewBox="0 0 1847 484.64"><defs><style>.cls-1,.cls-5{font-size:421.06px;font-family:Titillium;font-weight:700;letter-spacing:21px;}.cls-1,.cls-3{fill:#d32f2f;}.cls-2,.cls-5{fill:#ffeb3b;}.cls-4{fill:#f44336;}.cls-6{letter-spacing:-10px;}</style></defs><title>logo</title><text class="cls-1" transform="translate(1056.27 353.69)">EER</text><polygon class="cls-2" points="320.5 70.43 246.29 70.43 170 225.48 209.78 225.48 195.18 262.27 125.84 263.59 110.72 225.48 150.5 225.48 74.21 70.43 0 70.43 51.22 174.53 16.29 174.53 160.25 350.29 175.17 312.7 160.25 350.29 304.21 174.53 269.28 174.53 320.5 70.43"/><path class="cls-3" d="M270.6,199.35a43.24,43.24,0,0,0-80.13-22.6,43.24,43.24,0,1,0-65.27,55.18l61.32,61.32a5.59,5.59,0,0,0,7.9,0l61.32-61.32a43.11,43.11,0,0,0,14.85-32.58h0Zm0,0" transform="translate(-30.23)"/><path class="cls-4" d="M0,498.5" transform="translate(-30.23)"/><path class="cls-4" d="M207.43,202.72" transform="translate(-30.23)"/><text class="cls-5" transform="translate(333.47 353.69)">O<tspan class="cls-6" x="295.58" y="0">L</tspan><tspan x="483.37" y="0">T</tspan></text></svg>